<svg xmlns="http://www.w3.org/2000/svg" width="37" height="37" viewBox="0 0 37 37" fill="none"><path d="M26.93 16.1475C26.285 16.1475 25.775 15.6225 25.775 14.9925C25.775 14.4375 25.22 13.2825 24.29 12.2775C23.375 11.3025 22.37 10.7325 21.53 10.7325C20.885 10.7325 20.375 10.2075 20.375 9.57749C20.375 8.94749 20.9 8.42249 21.53 8.42249C23.03 8.42249 24.605 9.23249 25.985 10.6875C27.275 12.0525 28.1 13.7475 28.1 14.9775C28.1 15.6225 27.575 16.1475 26.93 16.1475Z" fill="#14A077"></path><path opacity="0.5" d="M32.3446 16.1475C31.6996 16.1475 31.1896 15.6225 31.1896 14.9925C31.1896 9.66746 26.8546 5.34746 21.5446 5.34746C20.8996 5.34746 20.3896 4.82246 20.3896 4.19246C20.3896 3.56246 20.8996 3.02246 21.5296 3.02246C28.1296 3.02246 33.4996 8.39246 33.4996 14.9925C33.4996 15.6225 32.9746 16.1475 32.3446 16.1475Z" fill="#14A077"></path><path opacity="0.5" d="M18.185 21.3375L13.28 26.2425C12.74 25.7625 12.215 25.2675 11.705 24.7575C10.16 23.1975 8.765 21.5625 7.52 19.8525C6.29 18.1425 5.3 16.4325 4.58 14.7375C3.86 13.0275 3.5 11.3925 3.5 9.83246C3.5 8.81246 3.68 7.83746 4.04 6.93746C4.4 6.02246 4.97 5.18246 5.765 4.43246C6.725 3.48746 7.775 3.02246 8.885 3.02246C9.305 3.02246 9.725 3.11246 10.1 3.29246C10.49 3.47246 10.835 3.74246 11.105 4.13246L14.585 9.03746C14.855 9.41246 15.05 9.75746 15.185 10.0875C15.32 10.4025 15.395 10.7175 15.395 11.0025C15.395 11.3625 15.29 11.7225 15.08 12.0675C14.885 12.4125 14.6 12.7725 14.24 13.1325L13.1 14.3175C12.935 14.4825 12.86 14.6775 12.86 14.9175C12.86 15.0375 12.875 15.1425 12.905 15.2625C12.95 15.3825 12.995 15.4725 13.025 15.5625C13.295 16.0575 13.76 16.7025 14.42 17.4825C15.095 18.2625 15.815 19.0575 16.595 19.8525C17.135 20.3775 17.66 20.8875 18.185 21.3375Z" fill="#14A077"></path><path d="M33.4554 27.5175C33.4554 27.9375 33.3804 28.3725 33.2304 28.7925C33.1854 28.9125 33.1404 29.0325 33.0804 29.1525C32.8254 29.6925 32.4954 30.2025 32.0604 30.6825C31.3254 31.4925 30.5154 32.0775 29.6004 32.4525C29.5854 32.4525 29.5704 32.4675 29.5554 32.4675C28.6704 32.8275 27.7104 33.0225 26.6754 33.0225C25.1454 33.0225 23.5104 32.6625 21.7854 31.9275C20.0604 31.1925 18.3354 30.2025 16.6254 28.9575C16.0404 28.5225 15.4554 28.0875 14.9004 27.6225L19.8054 22.7175C20.2254 23.0325 20.6004 23.2725 20.9154 23.4375C20.9904 23.4675 21.0804 23.5125 21.1854 23.5575C21.3054 23.6025 21.4254 23.6175 21.5604 23.6175C21.8154 23.6175 22.0104 23.5275 22.1754 23.3625L23.3154 22.2375C23.6904 21.8625 24.0504 21.5775 24.3954 21.3975C24.7404 21.1875 25.0854 21.0825 25.4604 21.0825C25.7454 21.0825 26.0454 21.1425 26.3754 21.2775C26.7054 21.4125 27.0504 21.6075 27.4254 21.8625L32.3904 25.3875C32.7804 25.6575 33.0504 25.9725 33.2154 26.3475C33.3654 26.7225 33.4554 27.0975 33.4554 27.5175Z" fill="#14A077"></path></svg>